# xmcd
#
# Track frame offsets:
#	182
#	14220
#	30395
#	41837
#	55235
#	68765
#	80630
#	96100
#	112282
#	125780
#	143545
#	159910
#	172622
#	185440
#	196067
#	210147
#	221725
#	235632
#	249035
#
# Disc length: 3477 seconds
#
# Revision: 0
# Processed by: cddbd v1.5.2PL0 Copyright (c) Steve Scherf et al.
# Submitted via: EasyCDDAExtractor 12.0.0.1
#
DISCID=fb0d9313
DTITLE=Annie Gould - Succés
DYEAR=1900
DGENRE=Chanson
TTITLE0=Ni toi ni moi
TTITLE1=Si quelqu'un m'aime
TTITLE2=Johnny tu n'es pas un ange
TTITLE3=Sa jeunesse
TTITLE4=Tois qui disais, qui disais, qui disais
TTITLE5=Lola
TTITLE6=Concerto d'automne
TTITLE7=Monsieur mon passé
TTITLE8=La complainte des coeurs purs
TTITLE9=Un jour tu verras
TTITLE10=Lon de vous
TTITLE11=Les enchainés
TTITLE12=La plus belle chose au monde
TTITLE13=Le gars de Rochechouardt
TTITLE14=Vivre avec toi
TTITLE15=Fleur du passé
TTITLE16=A t'regarder
TTITLE17=J'amerai tellement ça
TTITLE18=Petite fleur
EXTD=
EXTT0=
EXTT1=
EXTT2=
EXTT3=
EXTT4=
EXTT5=
EXTT6=
EXTT7=
EXTT8=
EXTT9=
EXTT10=
EXTT11=
EXTT12=
EXTT13=
EXTT14=
EXTT15=
EXTT16=
EXTT17=
EXTT18=
PLAYORDER=
